HIERARCHY
ROOT Hips
{
  OFFSET 91.2244 90.026 26.1335
  CHANNELS 6 Xposition Yposition Zposition Zrotation Xrotation Yrotation
  JOINT RightUpLeg
  {
    OFFSET -9.26543 -1.55198 -0.00276407
    CHANNELS 3 Zrotation Xrotation Yrotation
    JOINT RightLeg
    {
      OFFSET 0.00706465 -41.889 0.0798854
      CHANNELS 3 Zrotation Xrotation Yrotation
      JOINT RightFoot
      {
        OFFSET -1.51766 -41.6901 -0.263239
        CHANNELS 3 Zrotation Xrotation Yrotation
        End Site
        {
          OFFSET 0 -7.69 17.5
        }
      }
    }
  }
  JOINT LeftUpLeg
  {
    OFFSET 9.33035 -1.6331 0.002402
    CHANNELS 3 Zrotation Xrotation Yrotation
    JOINT LeftLeg
    {
      OFFSET 0.0774 -41.8788 0.006528
      CHANNELS 3 Zrotation Xrotation Yrotation
      JOINT LeftFoot
      {
        OFFSET 0.406189 -42.2791 -0.67832
        CHANNELS 3 Zrotation Xrotation Yrotation
        End Site
        {
          OFFSET 0 -7.69 17.5
        }
      }
    }
  }
  JOINT Spine
  {
    OFFSET 0.0210118 14.3125 0.030377
    CHANNELS 3 Zrotation Xrotation Yrotation
    JOINT Spine1
    {
      OFFSET -2.02627e-05 9.71981 0.0121962
      CHANNELS 3 Zrotation Xrotation Yrotation
      JOINT Spine2
      {
        OFFSET 0.023812 10.122 0.0180119
        CHANNELS 3 Zrotation Xrotation Yrotation
        JOINT Spine3
        {
          OFFSET 0.00443321 9.71861 0.0143853
          CHANNELS 3 Zrotation Xrotation Yrotation
          JOINT Neck
          {
            OFFSET -0.025003 10.3767 0.0233355
            CHANNELS 3 Zrotation Xrotation Yrotation
            JOINT Head
            {
              OFFSET -0.00975384 9.4764 0.045578
              CHANNELS 3 Zrotation Xrotation Yrotation
              End Site
              {
                OFFSET 0 15.95 0
              }
            }
          }
          JOINT RightShoulder
          {
            OFFSET -3.18407 6.9358 0.0313291
            CHANNELS 3 Zrotation Xrotation Yrotation
            JOINT RightArm
            {
              OFFSET -12.7601 0.0147069 0.0234973
              CHANNELS 3 Zrotation Xrotation Yrotation
              JOINT RightForeArm
              {
                OFFSET -26.4708 -0.032683 0.042111
                CHANNELS 3 Zrotation Xrotation Yrotation
                JOINT RightHand
                {
                  OFFSET -26.0234 -0.0283521 0.00388791
                  CHANNELS 3 Zrotation Xrotation Yrotation
                  JOINT RightHandThumb1
                  {
                    OFFSET -2.48905 0.190105 3.12053
                    CHANNELS 3 Zrotation Xrotation Yrotation
                    JOINT RightHandThumb2
                    {
                      OFFSET -3.68274 0 0
                      CHANNELS 3 Zrotation Xrotation Yrotation
                      JOINT RightHandThumb3
                      {
                        OFFSET -2.55832 0 0
                        CHANNELS 3 Zrotation Xrotation Yrotation
                        End Site
                        {
                          OFFSET -2.194 0 0
                        }
                      }
                    }
                  }
                  JOINT RightInHandIndex
                  {
                    OFFSET -3.22368 0.508421 1.97842
                    CHANNELS 3 Zrotation Xrotation Yrotation
                    JOINT RightHandIndex1
                    {
                      OFFSET -5.21684 -0.091368 0.999158
                      CHANNELS 3 Zrotation Xrotation Yrotation
                      JOINT RightHandIndex2
                      {
                        OFFSET -3.61937 0 0
                        CHANNELS 3 Zrotation Xrotation Yrotation
                        JOINT RightHandIndex3
                        {
                          OFFSET -2.0521 0 0
                          CHANNELS 3 Zrotation Xrotation Yrotation
                          End Site
                          {
                            OFFSET -1.805 0 0
                          }
                        }
                      }
                    }
                  }
                  JOINT RightInHandMiddle
                  {
                    OFFSET -3.38211 0.517263 0.756737
                    CHANNELS 3 Zrotation Xrotation Yrotation
                    JOINT RightHandMiddle1
                    {
                      OFFSET -5.17411 -0.084 0.313895
                      CHANNELS 3 Zrotation Xrotation Yrotation
                      JOINT RightHandMiddle2
                      {
                        OFFSET -3.94947 0 0
                        CHANNELS 3 Zrotation Xrotation Yrotation
                        JOINT RightHandMiddle3
                        {
                          OFFSET -2.47579 0 0
                          CHANNELS 3 Zrotation Xrotation Yrotation
                          End Site
                          {
                            OFFSET -1.975 0 0
                          }
                        }
                      }
                    }
                  }
                  JOINT RightInHandRing
                  {
                    OFFSET -3.36516 0.537895 -0.128947
                    CHANNELS 3 Zrotation Xrotation Yrotation
                    JOINT RightHandRing1
                    {
                      OFFSET -4.63474 -0.022105 -0.478947
                      CHANNELS 3 Zrotation Xrotation Yrotation
                      JOINT RightHandRing2
                      {
                        OFFSET -3.44238 0 0
                        CHANNELS 3 Zrotation Xrotation Yrotation
                        JOINT RightHandRing3
                        {
                          OFFSET -2.3881 0 0
                          CHANNELS 3 Zrotation Xrotation Yrotation
                          End Site
                          {
                            OFFSET -1.857 0 0
                          }
                        }
                      }
                    }
                  }
                  JOINT RightInHandPinky
                  {
                    OFFSET -3.16105 0.469368 -1.20179
                    CHANNELS 3 Zrotation Xrotation Yrotation
                    JOINT RightHandPinky1
                    {
                      OFFSET -4.14105 -0.022105 -1.09053
                      CHANNELS 3 Zrotation Xrotation Yrotation
                      JOINT RightHandPinky2
                      {
                        OFFSET -2.75653 0 0
                        CHANNELS 3 Zrotation Xrotation Yrotation
                        JOINT RightHandPinky3
                        {
                          OFFSET -1.74189 0 0
                          CHANNELS 3 Zrotation Xrotation Yrotation
                          End Site
                          {
                            OFFSET -1.645 0 0
                          }
                        }
                      }
                    }
                  }
                }
              }
            }
          }
          JOINT LeftShoulder
          {
            OFFSET 3.21192 6.92101 0.01407
            CHANNELS 3 Zrotation Xrotation Yrotation
            JOINT LeftArm
            {
              OFFSET 12.7303 -0.00466279 0.011464
              CHANNELS 3 Zrotation Xrotation Yrotation
              JOINT LeftForeArm
              {
                OFFSET 26.497 -0.127446 0.0273404
                CHANNELS 3 Zrotation Xrotation Yrotation
                JOINT LeftHand
                {
                  OFFSET 26.0093 -0.0453415 -0.0774742
                  CHANNELS 3 Zrotation Xrotation Yrotation
                  JOINT LeftHandThumb1
                  {
                    OFFSET 2.48905 0.190105 3.12053
                    CHANNELS 3 Zrotation Xrotation Yrotation
                    JOINT LeftHandThumb2
                    {
                      OFFSET 3.68274 0 0
                      CHANNELS 3 Zrotation Xrotation Yrotation
                      JOINT LeftHandThumb3
                      {
                        OFFSET 2.55832 0 0
                        CHANNELS 3 Zrotation Xrotation Yrotation
                        End Site
                        {
                          OFFSET 2.194 0 0
                        }
                      }
                    }
                  }
                  JOINT LeftInHandIndex
                  {
                    OFFSET 3.22368 0.508421 1.97842
                    CHANNELS 3 Zrotation Xrotation Yrotation
                    JOINT LeftHandIndex1
                    {
                      OFFSET 5.21684 -0.091368 0.999158
                      CHANNELS 3 Zrotation Xrotation Yrotation
                      JOINT LeftHandIndex2
                      {
                        OFFSET 3.61937 0 0
                        CHANNELS 3 Zrotation Xrotation Yrotation
                        JOINT LeftHandIndex3
                        {
                          OFFSET 2.0521 0 0
                          CHANNELS 3 Zrotation Xrotation Yrotation
                          End Site
                          {
                            OFFSET 1.805 0 0
                          }
                        }
                      }
                    }
                  }
                  JOINT LeftInHandMiddle
                  {
                    OFFSET 3.38211 0.517263 0.756737
                    CHANNELS 3 Zrotation Xrotation Yrotation
                    JOINT LeftHandMiddle1
                    {
                      OFFSET 5.17411 -0.084 0.313895
                      CHANNELS 3 Zrotation Xrotation Yrotation
                      JOINT LeftHandMiddle2
                      {
                        OFFSET 3.94947 0 0
                        CHANNELS 3 Zrotation Xrotation Yrotation
                        JOINT LeftHandMiddle3
                        {
                          OFFSET 2.47579 0 0
                          CHANNELS 3 Zrotation Xrotation Yrotation
                          End Site
                          {
                            OFFSET 1.975 0 0
                          }
                        }
                      }
                    }
                  }
                  JOINT LeftInHandRing
                  {
                    OFFSET 3.36516 0.537895 -0.128947
                    CHANNELS 3 Zrotation Xrotation Yrotation
                    JOINT LeftHandRing1
                    {
                      OFFSET 4.63474 -0.022105 -0.478947
                      CHANNELS 3 Zrotation Xrotation Yrotation
                      JOINT LeftHandRing2
                      {
                        OFFSET 3.44238 0 0
                        CHANNELS 3 Zrotation Xrotation Yrotation
                        JOINT LeftHandRing3
                        {
                          OFFSET 2.3881 0 0
                          CHANNELS 3 Zrotation Xrotation Yrotation
                          End Site
                          {
                            OFFSET 1.857 0 0
                          }
                        }
                      }
                    }
                  }
                  JOINT LeftInHandPinky
                  {
                    OFFSET 3.16105 0.469368 -1.20179
                    CHANNELS 3 Zrotation Xrotation Yrotation
                    JOINT LeftHandPinky1
                    {
                      OFFSET 4.14105 -0.022105 -1.09053
                      CHANNELS 3 Zrotation Xrotation Yrotation
                      JOINT LeftHandPinky2
                      {
                        OFFSET 2.75653 0 0
                        CHANNELS 3 Zrotation Xrotation Yrotation
                        JOINT LeftHandPinky3
                        {
                          OFFSET 1.74189 0 0
                          CHANNELS 3 Zrotation Xrotation Yrotation
                          End Site
                          {
                            OFFSET 1.645 0 0
                          }
                        }
                      }
                    }
                  }
                }
              }
            }
          }
        }
      }
    }
  }
}
MOTION
Frames: 3
Frame Time: 0.00833333
5.998223216863462994e+02 1.632464710594347043e-02 1.285259320178076640e-02 -1.341143972486026070e-01 7.225196320807436741e-03 -7.450789482267142771e-01 8.029714481563365869e-01 4.066323014091649014e-03 1.392397995657004062e+00 1.479806452913955406e-01 -2.654007160092412138e-02 -5.931733599161170822e-01 8.113585934901568208e-02 -3.854719983330927996e-02 3.646055031049687534e-01 2.484146074038910690e-01 3.228269289050068602e-01 3.060121103035029488e-01 3.132051147961426585e-01 3.933947405718130619e-01 -1.609439578570957541e-01 -2.278775703700300012e-02 -4.158275380133547028e-01 3.360884066895694633e-01 1.436078620279354068e-01 7.222249641525683994e-02 -9.255723730082345835e-01 2.138872529868241987e-02 1.624152390302413193e-02 -2.374578609483929126e-01 4.068701328716436277e-02 2.822221519572054582e-02 -4.028896683851628246e-01 -3.045717757479353763e-02 6.208334554529178900e-03 1.217026096771586102e-01 -3.134628569253414265e-02 -1.745132244848518824e-02 -9.827179610532785214e-02 -6.850395171928448379e-01 1.968150120311850104e-01 2.443900427031353129e+00 8.209308380496287416e-01 -5.782637560894395845e-01 -1.250898776769772569e+00 -2.820072379861442990e-01 -1.481351882564814204e+00 -2.258737077795600623e+00 4.535144687095156613e+00 2.311606632366671743e+00 6.263020517219838545e+00 -2.411148146957927452e+00 3.259767076849552359e-01 2.077661504621175770e-01 0.000000000000000000e+00 0.000000000000000000e+00 0.000000000000000000e+00 -3.331834683578219712e-15 -3.021307191295434734e-16 0.000000000000000000e+00 9.312234882638336389e-16 -3.370774305348047560e-15 0.000000000000000000e+00 -1.397976759394151552e-15 -2.340223965767865439e-15 2.208838353904451782e-17 0.000000000000000000e+00 0.000000000000000000e+00 0.000000000000000000e+00 0.000000000000000000e+00 -2.236938694041775349e-16 -1.022309673829935059e-14 0.000000000000000000e+00 -6.598101809905520632e-16 -1.382571540112225660e-14 -1.397976759394151552e-15 -2.340223965767865439e-15 2.208838353904451782e-17 0.000000000000000000e+00 -9.997829870180658434e-16 1.887275604622998812e-15 0.000000000000000000e+00 4.843104325615185248e-16 -2.849169481648233160e-15 0.000000000000000000e+00 2.605176177727837880e-16 -6.407289842113169097e-15 -1.397976759394151552e-15 -2.340223965767865439e-15 2.208838353904451782e-17 0.000000000000000000e+00 0.000000000000000000e+00 0.000000000000000000e+00 0.000000000000000000e+00 2.621671275728902376e-15 -7.949904038269321341e-15 0.000000000000000000e+00 -2.128591713771897230e-15 -1.799997706496227826e-15 -1.397976759394151552e-15 -2.340223965767865439e-15 2.208838353904451782e-17 0.000000000000000000e+00 0.000000000000000000e+00 0.000000000000000000e+00 0.000000000000000000e+00 -6.558932566615637224e-16 -4.434357665833515327e-15 0.000000000000000000e+00 -7.904817146227158977e-16 -9.343084493421619031e-15 1.933439514362822187e-01 -3.047526133085745603e-01 -1.558163291977009840e-02 2.962247168279665388e+00 2.491363997971202116e-02 -3.521371315544104874e+00 -9.043731860434176539e+00 2.366247122561930816e+00 -9.736313780677210872e+00 -4.916364046794723108e-02 1.407272420265131885e+00 -3.028562530972648048e+00 0.000000000000000000e+00 0.000000000000000000e+00 0.000000000000000000e+00 -4.614086516833472130e-16 -1.868547594369553409e-15 0.000000000000000000e+00 -1.979994054083331907e-15 -1.532975937428344269e-15 0.000000000000000000e+00 -1.260245859933007835e-15 -1.826319249434704445e-15 -1.346199069107678245e-15 0.000000000000000000e+00 0.000000000000000000e+00 0.000000000000000000e+00 0.000000000000000000e+00 1.713512068876647213e-15 7.925384218902703200e-16 0.000000000000000000e+00 1.268581343847335527e-15 -3.100528040381319065e-15 -1.260245859933007835e-15 -1.826319249434704445e-15 -1.346199069107678245e-15 0.000000000000000000e+00 -4.090313997953624669e-15 -1.731103722195557659e-15 0.000000000000000000e+00 -2.938084616372625632e-15 7.917239184417231759e-16 0.000000000000000000e+00 2.530061704664805137e-15 -5.429337864849560651e-15 -1.260245859933007835e-15 -1.826319249434704445e-15 -1.346199069107678245e-15 0.000000000000000000e+00 0.000000000000000000e+00 0.000000000000000000e+00 0.000000000000000000e+00 8.693192150603997630e-16 -1.936412377698992737e-15 0.000000000000000000e+00 7.455833308928747500e-16 -5.900129610870292611e-15 -1.260245859933007835e-15 -1.826319249434704445e-15 -1.346199069107678245e-15 0.000000000000000000e+00 0.000000000000000000e+00 0.000000000000000000e+00 0.000000000000000000e+00 -2.223550384525076489e-15 -3.646083755704969876e-15 0.000000000000000000e+00 1.816416877075319700e-15 -6.169737859149332175e-15
5.998361228299008872e+02 1.336176224873075052e-02 3.241007934627715414e-02 -1.152356815807866475e-01 1.593119597547065433e-02 -6.435300958376923841e-01 6.821190513450691162e-01 -1.949452958756837245e-02 1.260591168586024935e+00 1.625628535377107997e-01 4.854963400528516070e-03 -6.129327439757386031e-01 7.732479993185685518e-02 -5.290303333248903839e-02 3.437852080693574730e-01 2.167979259245721158e-01 2.527371462659712686e-01 2.653716161435163978e-01 3.096388773387431792e-01 3.769515880509402006e-01 -1.786352527730247219e-01 -1.351815621305648210e-02 -3.793255366724156974e-01 3.168373631048589933e-01 1.341214923706432749e-01 8.853042626091583989e-02 -8.377013468457401579e-01 2.026730362969234034e-02 2.129802101095753381e-02 -2.149277964567432031e-01 3.824288860471893731e-02 3.645960375811122672e-02 -3.650671342842198297e-01 -2.745851692353593401e-02 5.750726231206849948e-03 1.105342915033821899e-01 -2.943835741543208984e-02 -1.498356060228156830e-02 -8.059356590468938486e-02 -6.174205958551821638e-01 1.804270550324138245e-01 2.206933490313164992e+00 8.106341151305205273e-01 -5.409151740420499177e-01 -1.201827893692541060e+00 -1.661589059818840697e-01 -1.240789297313916073e+00 -2.024949732971028649e+00 4.175069078808359535e+00 2.259728678038578575e+00 5.746250065631500981e+00 -2.251079268408930467e+00 1.896605431517833784e-01 1.682636956255097183e-01 0.000000000000000000e+00 0.000000000000000000e+00 0.000000000000000000e+00 -3.359388977020074904e-15 -3.115533049635245514e-16 0.000000000000000000e+00 9.216707871573654664e-16 -3.283677962294083751e-15 0.000000000000000000e+00 -1.373485591459546073e-15 -2.197878398862740670e-15 8.592984557550773082e-17 0.000000000000000000e+00 0.000000000000000000e+00 0.000000000000000000e+00 0.000000000000000000e+00 -1.299440588739252472e-16 -1.007598056982377241e-14 0.000000000000000000e+00 -6.670762990049803160e-16 -1.384832072233423630e-14 -1.373485591459546073e-15 -2.197878398862740670e-15 8.592984557550773082e-17 0.000000000000000000e+00 -1.002315484343362940e-15 1.876355340738321777e-15 0.000000000000000000e+00 5.210181584460847985e-16 -2.717125052546387526e-15 0.000000000000000000e+00 2.034483941553881505e-16 -6.457951446766417029e-15 -1.373485591459546073e-15 -2.197878398862740670e-15 8.592984557550773082e-17 0.000000000000000000e+00 0.000000000000000000e+00 0.000000000000000000e+00 0.000000000000000000e+00 2.598914332509559683e-15 -8.065353622985770030e-15 0.000000000000000000e+00 -2.091248122502002675e-15 -1.833353126956011312e-15 -1.373485591459546073e-15 -2.197878398862740670e-15 8.592984557550773082e-17 0.000000000000000000e+00 0.000000000000000000e+00 0.000000000000000000e+00 0.000000000000000000e+00 -6.783228874770320374e-16 -4.303303555775954829e-15 0.000000000000000000e+00 -7.643577575817668816e-16 -9.264991087730136860e-15 1.645370469073929864e-01 -2.472882486499203003e-01 -5.159316014973361342e-02 2.720652977403623662e+00 1.117851065452170334e-02 -3.144924148127716368e+00 -9.254237376013723093e+00 2.027955902277251532e+00 -9.793248386174168374e+00 -2.756649902450522549e-01 1.090712401374776652e+00 -3.145852951037855672e+00 0.000000000000000000e+00 0.000000000000000000e+00 0.000000000000000000e+00 -4.858436146190312241e-16 -1.851312131080810549e-15 0.000000000000000000e+00 -2.050745698494277159e-15 -1.542328518571649424e-15 0.000000000000000000e+00 -1.283930626530068523e-15 -1.784887372795331555e-15 -1.345043685260406128e-15 0.000000000000000000e+00 0.000000000000000000e+00 0.000000000000000000e+00 0.000000000000000000e+00 1.776994298873433780e-15 7.976246137255350463e-16 0.000000000000000000e+00 1.336633678436538740e-15 -3.338830652975917164e-15 -1.283930626530068523e-15 -1.784887372795331555e-15 -1.345043685260406128e-15 0.000000000000000000e+00 -3.984968980758529136e-15 -1.801582860850721659e-15 0.000000000000000000e+00 -2.888970236852555864e-15 5.946171401589591296e-16 0.000000000000000000e+00 2.461417027607493157e-15 -5.583939597419112812e-15 -1.283930626530068523e-15 -1.784887372795331555e-15 -1.345043685260406128e-15 0.000000000000000000e+00 0.000000000000000000e+00 0.000000000000000000e+00 0.000000000000000000e+00 8.264840724132232571e-16 -1.986660376909162660e-15 0.000000000000000000e+00 7.672676695338779345e-16 -5.988863805145576548e-15 -1.283930626530068523e-15 -1.784887372795331555e-15 -1.345043685260406128e-15 0.000000000000000000e+00 0.000000000000000000e+00 0.000000000000000000e+00 0.000000000000000000e+00 -2.212953858902866740e-15 -3.817742604479671993e-15 0.000000000000000000e+00 1.856753432555747045e-15 -6.175175186957508215e-15
5.998499290132148190e+02 1.062944363777680243e-02 4.886645647451642177e-02 -9.721777785217866619e-02 2.295805353837827856e-02 -5.474270242284061672e-01 5.695456504966784905e-01 -4.034870492453227625e-02 1.130605080782668193e+00 1.727086151149457571e-01 3.192283175566587583e-02 -6.209208902817301423e-01 7.314383571768129366e-02 -6.516890904149091890e-02 3.206441647848194409e-01 1.873109009105600464e-01 1.881115705760968426e-01 2.274489150253735659e-01 3.034355159891332643e-01 3.582024376728972226e-01 -1.923224328803419259e-01 -5.480707354003723497e-03 -3.433418495426600603e-01 2.967200583319599128e-01 1.247023080603006512e-01 1.012799042866063676e-01 -7.532497258109310811e-01 1.911937109619201575e-02 2.539508164886961419e-02 -1.932636881386967376e-01 3.578604708224006337e-02 4.313316736153460784e-02 -3.286435247403842186e-01 -2.456221261074722703e-02 5.308202216390598728e-03 9.966092829791649288e-02 -2.752662164726196389e-02 -1.258402043101425338e-02 -6.414756384532964428e-02 -5.520711905866788616e-01 1.643399755159231646e-01 1.977516833758863335e+00 7.937057249740512299e-01 -5.022281459406499060e-01 -1.149446160332316058e+00 -6.223215453341671144e-02 -1.013355504470426105e+00 -1.798321840669458105e+00 3.810228136906256946e+00 2.192102396610806636e+00 5.224133794537361375e+00 -2.085112339466422160e+00 6.938175558727530112e-02 1.324763327471612517e-01 0.000000000000000000e+00 0.000000000000000000e+00 0.000000000000000000e+00 -3.340456589254226750e-15 -3.361952421297137090e-16 0.000000000000000000e+00 8.980430573397146426e-16 -3.165201540670486368e-15 0.000000000000000000e+00 -1.330317736605551939e-15 -2.047708279960443568e-15 1.600382441329348549e-16 0.000000000000000000e+00 0.000000000000000000e+00 0.000000000000000000e+00 0.000000000000000000e+00 -5.383350800224605813e-17 -9.838278046724497815e-15 0.000000000000000000e+00 -6.650116697105511839e-16 -1.370280554138765752e-14 -1.330317736605551939e-15 -2.047708279960443568e-15 1.600382441329348549e-16 0.000000000000000000e+00 -9.915470264229090931e-16 1.831281858855903699e-15 0.000000000000000000e+00 5.528765939710291076e-16 -2.559904636928716002e-15 0.000000000000000000e+00 1.323633223804201139e-16 -6.513292689376385029e-15 -1.330317736605551939e-15 -2.047708279960443568e-15 1.600382441329348549e-16 0.000000000000000000e+00 0.000000000000000000e+00 0.000000000000000000e+00 0.000000000000000000e+00 2.524774421869443555e-15 -8.061634020754106922e-15 0.000000000000000000e+00 -2.052585269875245349e-15 -1.918082882663477295e-15 -1.330317736605551939e-15 -2.047708279960443568e-15 1.600382441329348549e-16 0.000000000000000000e+00 0.000000000000000000e+00 0.000000000000000000e+00 0.000000000000000000e+00 -7.109972029803787486e-16 -4.165427817343984141e-15 0.000000000000000000e+00 -7.448168730234625699e-16 -9.125349604338517981e-15 1.371150605989880089e-01 -1.933712640710385511e-01 -7.864501364146481155e-02 2.477859695462635070e+00 -1.590148781954243973e-03 -2.780435318725036353e+00 -9.287785654451287343e+00 1.713031533353306601e+00 -9.689007577113635250e+00 -4.498899451571116703e-01 8.013697232186461905e-01 -3.188718341386009403e+00 0.000000000000000000e+00 0.000000000000000000e+00 0.000000000000000000e+00 -5.115970194285865470e-16 -1.790538968642824263e-15 0.000000000000000000e+00 -2.084009500148720995e-15 -1.517781887216352872e-15 0.000000000000000000e+00 -1.284860489036720812e-15 -1.720909558167938659e-15 -1.318491306344062408e-15 0.000000000000000000e+00 0.000000000000000000e+00 0.000000000000000000e+00 0.000000000000000000e+00 1.810135465265103701e-15 7.800305576198144368e-16 0.000000000000000000e+00 1.376199005659431845e-15 -3.490423282690422569e-15 -1.284860489036720812e-15 -1.720909558167938659e-15 -1.318491306344062408e-15 0.000000000000000000e+00 -3.833096230281039382e-15 -1.822266183803185420e-15 0.000000000000000000e+00 -2.810838555748898789e-15 4.076136052323930217e-16 0.000000000000000000e+00 2.356286013987783584e-15 -5.641193471431888874e-15 -1.284860489036720812e-15 -1.720909558167938659e-15 -1.318491306344062408e-15 0.000000000000000000e+00 0.000000000000000000e+00 0.000000000000000000e+00 0.000000000000000000e+00 7.693381515739959529e-16 -2.014276428807085246e-15 0.000000000000000000e+00 7.706492711913449795e-16 -5.989881966343793648e-15 -1.284860489036720812e-15 -1.720909558167938659e-15 -1.318491306344062408e-15 0.000000000000000000e+00 0.000000000000000000e+00 0.000000000000000000e+00 0.000000000000000000e+00 -2.168759422831173933e-15 -3.924446542079897974e-15 0.000000000000000000e+00 1.870594741763498776e-15 -6.110562278309850544e-15
